<?xml version="1.0" encoding="UTF-8"?>
<!DOCTYPE svg PUBLIC "-//W3C//DTD SVG 1.1//EN" "http://www.w3.org/Graphics/SVG/1.1/DTD/svg11.dtd">
<svg xmlns="http://www.w3.org/2000/svg" version="1.1" width="211px" height="124px" style="shape-rendering:geometricPrecision; text-rendering:geometricPrecision; image-rendering:optimizeQuality; fill-rule:evenodd; clip-rule:evenodd" xmlns:xlink="http://www.w3.org/1999/xlink">
<g><path style="opacity:0.966" fill="#f48a09" d="M 125.5,1.5 C 152.717,14.7759 179.717,28.6092 206.5,43C 192.171,43.4999 177.837,43.6666 163.5,43.5C 163.5,47.5 163.5,51.5 163.5,55.5C 178.167,55.5 192.833,55.5 207.5,55.5C 207.5,67.8333 207.5,80.1667 207.5,92.5C 184.167,92.5 160.833,92.5 137.5,92.5C 137.667,80.4954 137.5,68.4954 137,56.5C 126.255,77.6577 115.255,98.6577 104,119.5C 93.6667,99.5 83.3333,79.5 73,59.5C 72.5002,70.495 72.3335,81.495 72.5,92.5C 62.8333,92.5 53.1667,92.5 43.5,92.5C 43.5,85.8333 43.5,79.1667 43.5,72.5C 37.8333,72.5 32.1667,72.5 26.5,72.5C 26.5,79.1667 26.5,85.8333 26.5,92.5C 18.1667,92.5 9.83333,92.5 1.5,92.5C 1.33341,77.163 1.50008,61.8297 2,46.5C 10.3333,42.1667 18.6667,37.8333 27,33.5C 27.4995,39.8246 27.6662,46.1579 27.5,52.5C 33.1667,52.5 38.8333,52.5 44.5,52.5C 44.1822,43.2494 44.5155,34.0828 45.5,25C 58.8512,17.3235 72.5178,10.1568 86.5,3.5C 93.1518,14.7978 99.8185,26.1311 106.5,37.5C 113.368,25.7625 119.702,13.7625 125.5,1.5 Z M 164.5,69.5 C 171.5,69.5 178.5,69.5 185.5,69.5C 185.5,72.5 185.5,75.5 185.5,78.5C 178.5,78.5 171.5,78.5 164.5,78.5C 164.5,75.5 164.5,72.5 164.5,69.5 Z"/></g>
</svg>
